# Blender v2.93.5 OBJ File: 'frame_1.blend'
# www.blender.org
mtllib frame_1.mtl
o 立方体_立方体.001
v 0.000056 -0.017097 1.121447
v 0.000056 0.029487 1.121447
v 0.000056 -0.017097 0.940326
v 0.000056 0.007032 0.940326
v 1.121472 -0.017097 0.000031
v 1.121472 0.029487 0.000031
v 0.940351 -0.017097 0.000031
v 0.940351 0.007032 0.000031
v 0.000056 -0.017097 1.041220
v 0.000056 0.023938 1.041220
v 1.041245 -0.017097 0.000031
v 1.041245 0.023938 0.000031
v 0.000056 0.007032 0.983270
v 0.983295 -0.017097 0.000031
v 0.000056 -0.017097 0.983270
v 0.983295 0.007032 0.000031
v 0.000056 -0.017097 1.004742
v 1.004766 0.023938 0.000031
v 0.000056 0.023938 1.004742
v 1.004766 -0.017097 0.000031
v 0.000056 -0.017097 1.069157
v 1.069182 0.015976 0.000031
v 0.000056 0.015976 1.069157
v 1.069182 -0.017097 0.000031
v 0.000056 0.015976 1.057395
v 1.057420 -0.017097 0.000031
v 0.000056 -0.017097 1.057395
v 1.057420 0.015976 0.000031
v 0.000056 -0.017097 1.083567
v 1.083592 0.039230 0.000031
v 0.000056 0.039230 1.083567
v 1.083592 -0.017097 0.000031
v 0.000056 -0.017097 1.111075
v 1.111100 0.039230 0.000031
v 0.000056 0.039230 1.111075
v 1.111100 -0.017097 0.000031
v -0.000056 -0.017097 1.121447
v -0.000056 0.029487 1.121447
v -0.000056 -0.017097 0.940326
v -0.000056 0.007032 0.940326
v -1.121472 -0.017097 0.000031
v -1.121472 0.029487 0.000031
v -0.940351 -0.017097 0.000031
v -0.940351 0.007032 0.000031
v -0.000056 -0.017097 1.041220
v -0.000056 0.023938 1.041220
v -1.041245 -0.017097 0.000031
v -1.041245 0.023938 0.000031
v -0.000056 0.007032 0.983270
v -0.983295 -0.017097 0.000031
v -0.000056 -0.017097 0.983270
v -0.983295 0.007032 0.000031
v -0.000056 -0.017097 1.004742
v -1.004766 0.023938 0.000031
v -0.000056 0.023938 1.004742
v -1.004766 -0.017097 0.000031
v -0.000056 -0.017097 1.069157
v -1.069182 0.015976 0.000031
v -0.000056 0.015976 1.069157
v -1.069182 -0.017097 0.000031
v -0.000056 0.015976 1.057395
v -1.057420 -0.017097 0.000031
v -0.000056 -0.017097 1.057395
v -1.057420 0.015976 0.000031
v -0.000056 -0.017097 1.083567
v -1.083592 0.039230 0.000031
v -0.000056 0.039230 1.083567
v -1.083592 -0.017097 0.000031
v -0.000056 -0.017097 1.111075
v -1.111100 0.039230 0.000031
v -0.000056 0.039230 1.111075
v -1.111100 -0.017097 0.000031
v 0.000056 -0.017097 -1.121447
v 0.000056 0.029487 -1.121447
v 0.000056 -0.017097 -0.940326
v 0.000056 0.007032 -0.940326
v 1.121472 -0.017097 -0.000031
v 1.121472 0.029487 -0.000031
v 0.940351 -0.017097 -0.000031
v 0.940351 0.007032 -0.000031
v 0.000056 -0.017097 -1.041220
v 0.000056 0.023938 -1.041220
v 1.041245 -0.017097 -0.000031
v 1.041245 0.023938 -0.000031
v 0.000056 0.007032 -0.983270
v 0.983295 -0.017097 -0.000031
v 0.000056 -0.017097 -0.983270
v 0.983295 0.007032 -0.000031
v 0.000056 -0.017097 -1.004742
v 1.004766 0.023938 -0.000031
v 0.000056 0.023938 -1.004742
v 1.004766 -0.017097 -0.000031
v 0.000056 -0.017097 -1.069157
v 1.069182 0.015976 -0.000031
v 0.000056 0.015976 -1.069157
v 1.069182 -0.017097 -0.000031
v 0.000056 0.015976 -1.057395
v 1.057420 -0.017097 -0.000031
v 0.000056 -0.017097 -1.057395
v 1.057420 0.015976 -0.000031
v 0.000056 -0.017097 -1.083567
v 1.083592 0.039230 -0.000031
v 0.000056 0.039230 -1.083567
v 1.083592 -0.017097 -0.000031
v 0.000056 -0.017097 -1.111075
v 1.111100 0.039230 -0.000031
v 0.000056 0.039230 -1.111075
v 1.111100 -0.017097 -0.000031
v -0.000056 -0.017097 -1.121447
v -0.000056 0.029487 -1.121447
v -0.000056 -0.017097 -0.940326
v -0.000056 0.007032 -0.940326
v -1.121472 -0.017097 -0.000031
v -1.121472 0.029487 -0.000031
v -0.940351 -0.017097 -0.000031
v -0.940351 0.007032 -0.000031
v -0.000056 -0.017097 -1.041220
v -0.000056 0.023938 -1.041220
v -1.041245 -0.017097 -0.000031
v -1.041245 0.023938 -0.000031
v -0.000056 0.007032 -0.983270
v -0.983295 -0.017097 -0.000031
v -0.000056 -0.017097 -0.983270
v -0.983295 0.007032 -0.000031
v -0.000056 -0.017097 -1.004742
v -1.004766 0.023938 -0.000031
v -0.000056 0.023938 -1.004742
v -1.004766 -0.017097 -0.000031
v -0.000056 -0.017097 -1.069157
v -1.069182 0.015976 -0.000031
v -0.000056 0.015976 -1.069157
v -1.069182 -0.017097 -0.000031
v -0.000056 0.015976 -1.057395
v -1.057420 -0.017097 -0.000031
v -0.000056 -0.017097 -1.057395
v -1.057420 0.015976 -0.000031
v -0.000056 -0.017097 -1.083567
v -1.083592 0.039230 -0.000031
v -0.000056 0.039230 -1.083567
v -1.083592 -0.017097 -0.000031
v -0.000056 -0.017097 -1.111075
v -1.111100 0.039230 -0.000031
v -0.000056 0.039230 -1.111075
v -1.111100 -0.017097 -0.000031
vt 0.375000 0.250000
vt 0.625000 0.250000
vt 0.625000 0.500000
vt 0.375000 0.500000
vt 0.375000 0.750000
vt 0.625000 0.750000
vt 0.625000 1.000000
vt 0.375000 1.000000
vt 0.625000 0.734375
vt 0.875000 0.734375
vt 0.875000 0.750000
vt 0.625000 0.593750
vt 0.875000 0.593750
vt 0.875000 0.625000
vt 0.625000 0.625000
vt 0.375000 0.734375
vt 0.125000 0.750000
vt 0.125000 0.734375
vt 0.125000 0.718750
vt 0.125000 0.687500
vt 0.125000 0.656250
vt 0.125000 0.625000
vt 0.125000 0.593750
vt 0.125000 0.562500
vt 0.125000 0.500000
vt 0.375000 0.562500
vt 0.375000 0.593750
vt 0.375000 0.625000
vt 0.375000 0.656250
vt 0.375000 0.687500
vt 0.375000 0.718750
vt 0.875000 0.500000
vt 0.875000 0.562500
vt 0.625000 0.562500
vt 0.625000 0.656250
vt 0.875000 0.656250
vt 0.875000 0.687500
vt 0.625000 0.687500
vt 0.875000 0.718750
vt 0.625000 0.718750
vt 0.625000 0.187500
vt 0.375000 0.187500
vt 0.375000 0.156250
vt 0.375000 0.125000
vt 0.375000 0.093750
vt 0.375000 0.062500
vt 0.375000 0.031250
vt 0.375000 0.015625
vt 0.375000 0.000000
vt 0.625000 0.000000
vt 0.625000 0.015625
vt 0.625000 0.031250
vt 0.625000 0.062500
vt 0.625000 0.093750
vt 0.625000 0.125000
vt 0.625000 0.156250
vt 0.375000 0.250000
vt 0.375000 0.500000
vt 0.625000 0.500000
vt 0.625000 0.250000
vt 0.375000 0.750000
vt 0.375000 1.000000
vt 0.625000 1.000000
vt 0.625000 0.750000
vt 0.625000 0.734375
vt 0.875000 0.750000
vt 0.875000 0.734375
vt 0.625000 0.593750
vt 0.625000 0.625000
vt 0.875000 0.625000
vt 0.875000 0.593750
vt 0.375000 0.734375
vt 0.375000 0.718750
vt 0.375000 0.687500
vt 0.375000 0.656250
vt 0.375000 0.625000
vt 0.375000 0.593750
vt 0.375000 0.562500
vt 0.125000 0.500000
vt 0.125000 0.562500
vt 0.125000 0.593750
vt 0.125000 0.625000
vt 0.125000 0.656250
vt 0.125000 0.687500
vt 0.125000 0.718750
vt 0.125000 0.734375
vt 0.125000 0.750000
vt 0.625000 0.562500
vt 0.875000 0.562500
vt 0.875000 0.500000
vt 0.625000 0.656250
vt 0.625000 0.687500
vt 0.875000 0.687500
vt 0.875000 0.656250
vt 0.625000 0.718750
vt 0.875000 0.718750
vt 0.625000 0.187500
vt 0.625000 0.156250
vt 0.625000 0.125000
vt 0.625000 0.093750
vt 0.625000 0.062500
vt 0.625000 0.031250
vt 0.625000 0.015625
vt 0.625000 0.000000
vt 0.375000 0.000000
vt 0.375000 0.015625
vt 0.375000 0.031250
vt 0.375000 0.062500
vt 0.375000 0.093750
vt 0.375000 0.125000
vt 0.375000 0.156250
vt 0.375000 0.187500
vt 0.375000 0.250000
vt 0.375000 0.500000
vt 0.625000 0.500000
vt 0.625000 0.250000
vt 0.375000 0.750000
vt 0.375000 1.000000
vt 0.625000 1.000000
vt 0.625000 0.750000
vt 0.625000 0.734375
vt 0.875000 0.750000
vt 0.875000 0.734375
vt 0.625000 0.593750
vt 0.625000 0.625000
vt 0.875000 0.625000
vt 0.875000 0.593750
vt 0.375000 0.734375
vt 0.375000 0.718750
vt 0.375000 0.687500
vt 0.375000 0.656250
vt 0.375000 0.625000
vt 0.375000 0.593750
vt 0.375000 0.562500
vt 0.125000 0.500000
vt 0.125000 0.562500
vt 0.125000 0.593750
vt 0.125000 0.625000
vt 0.125000 0.656250
vt 0.125000 0.687500
vt 0.125000 0.718750
vt 0.125000 0.734375
vt 0.125000 0.750000
vt 0.625000 0.562500
vt 0.875000 0.562500
vt 0.875000 0.500000
vt 0.625000 0.656250
vt 0.625000 0.687500
vt 0.875000 0.687500
vt 0.875000 0.656250
vt 0.625000 0.718750
vt 0.875000 0.718750
vt 0.625000 0.187500
vt 0.625000 0.156250
vt 0.625000 0.125000
vt 0.625000 0.093750
vt 0.625000 0.062500
vt 0.625000 0.031250
vt 0.625000 0.015625
vt 0.625000 0.000000
vt 0.375000 0.000000
vt 0.375000 0.015625
vt 0.375000 0.031250
vt 0.375000 0.062500
vt 0.375000 0.093750
vt 0.375000 0.125000
vt 0.375000 0.156250
vt 0.375000 0.187500
vt 0.375000 0.250000
vt 0.625000 0.250000
vt 0.625000 0.500000
vt 0.375000 0.500000
vt 0.375000 0.750000
vt 0.625000 0.750000
vt 0.625000 1.000000
vt 0.375000 1.000000
vt 0.625000 0.734375
vt 0.875000 0.734375
vt 0.875000 0.750000
vt 0.625000 0.593750
vt 0.875000 0.593750
vt 0.875000 0.625000
vt 0.625000 0.625000
vt 0.375000 0.734375
vt 0.125000 0.750000
vt 0.125000 0.734375
vt 0.125000 0.718750
vt 0.125000 0.687500
vt 0.125000 0.656250
vt 0.125000 0.625000
vt 0.125000 0.593750
vt 0.125000 0.562500
vt 0.125000 0.500000
vt 0.375000 0.562500
vt 0.375000 0.593750
vt 0.375000 0.625000
vt 0.375000 0.656250
vt 0.375000 0.687500
vt 0.375000 0.718750
vt 0.875000 0.500000
vt 0.875000 0.562500
vt 0.625000 0.562500
vt 0.625000 0.656250
vt 0.875000 0.656250
vt 0.875000 0.687500
vt 0.625000 0.687500
vt 0.875000 0.718750
vt 0.625000 0.718750
vt 0.625000 0.187500
vt 0.375000 0.187500
vt 0.375000 0.156250
vt 0.375000 0.125000
vt 0.375000 0.093750
vt 0.375000 0.062500
vt 0.375000 0.031250
vt 0.375000 0.015625
vt 0.375000 0.000000
vt 0.625000 0.000000
vt 0.625000 0.015625
vt 0.625000 0.031250
vt 0.625000 0.062500
vt 0.625000 0.093750
vt 0.625000 0.125000
vt 0.625000 0.156250
vn -0.7071 0.0000 -0.7071
vn 0.7071 0.0000 0.7071
vn 0.5649 0.6015 0.5649
vn 0.0000 1.0000 0.0000
vn -0.0000 -1.0000 -0.0000
vn -0.5261 0.6682 -0.5261
vn 0.4040 0.8207 0.4040
vn -0.6477 0.4013 -0.6477
vn 0.0000 0.0000 -1.0000
vn -1.0000 0.0000 0.0000
vn 0.7071 0.0000 -0.7071
vn -0.7071 0.0000 0.7071
vn -0.5649 0.6015 0.5649
vn 0.5261 0.6682 -0.5261
vn -0.4040 0.8207 0.4040
vn 0.6477 0.4013 -0.6477
vn 1.0000 0.0000 0.0000
vn 0.5649 0.6015 -0.5649
vn -0.5261 0.6682 0.5261
vn 0.4040 0.8207 -0.4040
vn -0.6477 0.4013 0.6477
vn 0.0000 0.0000 1.0000
vn -0.5649 0.6015 -0.5649
vn 0.5261 0.6682 0.5261
vn -0.4040 0.8207 -0.4040
vn 0.6477 0.4013 0.6477
usemtl マテリアル
s off
f 3/1/1 4/2/1 8/3/1 7/4/1
f 5/5/2 6/6/2 2/7/2 1/8/2
f 34/9/3 35/10/3 2/11/3 6/6/3
f 18/12/4 19/13/4 10/14/4 12/15/4
f 36/16/5 5/5/5 1/17/5 33/18/5 29/19/5 21/20/5 27/21/5 9/22/5 17/23/5 15/24/5 3/25/5 7/4/5 14/26/5 20/27/5 11/28/5 26/29/5 24/30/5 32/31/5
f 8/3/4 4/32/4 13/33/4 16/34/4
f 16/34/6 13/33/6 19/13/6 18/12/6
f 28/35/4 25/36/4 23/37/4 22/38/4
f 12/15/7 10/14/7 25/36/7 28/35/7
f 22/38/8 23/37/8 31/39/8 30/40/8
f 34/9/9 6/6/9 5/5/9 36/16/9 32/31/9 24/30/9 26/29/9 11/28/9 20/27/9 14/26/9 7/4/9 8/3/9 16/34/9 18/12/9 12/15/9 28/35/9 22/38/9 30/40/9
f 30/40/4 31/39/4 35/10/4 34/9/4
f 13/41/10 4/2/10 3/1/10 15/42/10 17/43/10 9/44/10 27/45/10 21/46/10 29/47/10 33/48/10 1/49/10 2/50/10 35/51/10 31/52/10 23/53/10 25/54/10 10/55/10 19/56/10
f 39/57/11 43/58/11 44/59/11 40/60/11
f 41/61/12 37/62/12 38/63/12 42/64/12
f 70/65/13 42/64/13 38/66/13 71/67/13
f 54/68/4 48/69/4 46/70/4 55/71/4
f 72/72/5 68/73/5 60/74/5 62/75/5 47/76/5 56/77/5 50/78/5 43/58/5 39/79/5 51/80/5 53/81/5 45/82/5 63/83/5 57/84/5 65/85/5 69/86/5 37/87/5 41/61/5
f 44/59/4 52/88/4 49/89/4 40/90/4
f 52/88/14 54/68/14 55/71/14 49/89/14
f 64/91/4 58/92/4 59/93/4 61/94/4
f 48/69/15 64/91/15 61/94/15 46/70/15
f 58/92/16 66/95/16 67/96/16 59/93/16
f 70/65/9 66/95/9 58/92/9 64/91/9 48/69/9 54/68/9 52/88/9 44/59/9 43/58/9 50/78/9 56/77/9 47/76/9 62/75/9 60/74/9 68/73/9 72/72/9 41/61/9 42/64/9
f 66/95/4 70/65/4 71/67/4 67/96/4
f 49/97/17 55/98/17 46/99/17 61/100/17 59/101/17 67/102/17 71/103/17 38/104/17 37/105/17 69/106/17 65/107/17 57/108/17 63/109/17 45/110/17 53/111/17 51/112/17 39/57/17 40/60/17
f 75/113/12 79/114/12 80/115/12 76/116/12
f 77/117/11 73/118/11 74/119/11 78/120/11
f 106/121/18 78/120/18 74/122/18 107/123/18
f 90/124/4 84/125/4 82/126/4 91/127/4
f 108/128/5 104/129/5 96/130/5 98/131/5 83/132/5 92/133/5 86/134/5 79/114/5 75/135/5 87/136/5 89/137/5 81/138/5 99/139/5 93/140/5 101/141/5 105/142/5 73/143/5 77/117/5
f 80/115/4 88/144/4 85/145/4 76/146/4
f 88/144/19 90/124/19 91/127/19 85/145/19
f 100/147/4 94/148/4 95/149/4 97/150/4
f 84/125/20 100/147/20 97/150/20 82/126/20
f 94/148/21 102/151/21 103/152/21 95/149/21
f 106/121/22 102/151/22 94/148/22 100/147/22 84/125/22 90/124/22 88/144/22 80/115/22 79/114/22 86/134/22 92/133/22 83/132/22 98/131/22 96/130/22 104/129/22 108/128/22 77/117/22 78/120/22
f 102/151/4 106/121/4 107/123/4 103/152/4
f 85/153/10 91/154/10 82/155/10 97/156/10 95/157/10 103/158/10 107/159/10 74/160/10 73/161/10 105/162/10 101/163/10 93/164/10 99/165/10 81/166/10 89/167/10 87/168/10 75/113/10 76/116/10
f 111/169/2 112/170/2 116/171/2 115/172/2
f 113/173/1 114/174/1 110/175/1 109/176/1
f 142/177/23 143/178/23 110/179/23 114/174/23
f 126/180/4 127/181/4 118/182/4 120/183/4
f 144/184/5 113/173/5 109/185/5 141/186/5 137/187/5 129/188/5 135/189/5 117/190/5 125/191/5 123/192/5 111/193/5 115/172/5 122/194/5 128/195/5 119/196/5 134/197/5 132/198/5 140/199/5
f 116/171/4 112/200/4 121/201/4 124/202/4
f 124/202/24 121/201/24 127/181/24 126/180/24
f 136/203/4 133/204/4 131/205/4 130/206/4
f 120/183/25 118/182/25 133/204/25 136/203/25
f 130/206/26 131/205/26 139/207/26 138/208/26
f 142/177/22 114/174/22 113/173/22 144/184/22 140/199/22 132/198/22 134/197/22 119/196/22 128/195/22 122/194/22 115/172/22 116/171/22 124/202/22 126/180/22 120/183/22 136/203/22 130/206/22 138/208/22
f 138/208/4 139/207/4 143/178/4 142/177/4
f 121/209/17 112/170/17 111/169/17 123/210/17 125/211/17 117/212/17 135/213/17 129/214/17 137/215/17 141/216/17 109/217/17 110/218/17 143/219/17 139/220/17 131/221/17 133/222/17 118/223/17 127/224/17
